HIERARCHY
ROOT Hips
{
	OFFSET -0.001795 -0.223333 0.028219
	CHANNELS 6 Xposition Yposition Zposition Zrotation Yrotation Xrotation 
	JOINT LeftUpLeg
	{
		OFFSET 0.069520 -0.091406 -0.006815
		CHANNELS 3 Zrotation Yrotation Xrotation
		JOINT LeftLeg
		{
			OFFSET 0.034277 -0.375199 -0.004496
			CHANNELS 3 Zrotation Yrotation Xrotation
			JOINT LeftFoot
			{
				OFFSET -0.013596 -0.397961 -0.043693
				CHANNELS 3 Zrotation Yrotation Xrotation
				JOINT LeftToe
				{
					OFFSET 0.026358 -0.055791 0.119288
					CHANNELS 3 Zrotation Yrotation Xrotation
					End Site
					{
						OFFSET 0.000000 0.000000 0.000000
					}
				}
			}
		}
	}
	JOINT RightUpLeg
	{
		OFFSET -0.067670 -0.090522 -0.004320
		CHANNELS 3 Zrotation Yrotation Xrotation
		JOINT RightLeg
		{
			OFFSET -0.038290 -0.382569 -0.008850
			CHANNELS 3 Zrotation Yrotation Xrotation
			JOINT RightFoot
			{
				OFFSET 0.015774 -0.398415 -0.042312
				CHANNELS 3 Zrotation Yrotation Xrotation
				JOINT RightToe
				{
					OFFSET -0.025372 -0.048144 0.123348
					CHANNELS 3 Zrotation Yrotation Xrotation
					End Site
					{
						OFFSET 0.000000 0.000000 0.000000
					}
				}
			}
		}
	}
	JOINT Spine
	{
		OFFSET -0.002533 0.108963 -0.026696
		CHANNELS 3 Zrotation Yrotation Xrotation
		JOINT Spine1
		{
			OFFSET 0.005487 0.135180 0.001092
			CHANNELS 3 Zrotation Yrotation Xrotation
			JOINT Spine2
			{
				OFFSET 0.001457 0.052922 0.025425
				CHANNELS 3 Zrotation Yrotation Xrotation
				JOINT Neck
				{
					OFFSET -0.002778 0.213870 -0.042857
					CHANNELS 3 Zrotation Yrotation Xrotation
					JOINT Head
					{
						OFFSET 0.005152 0.064970 0.051349
						CHANNELS 3 Zrotation Yrotation Xrotation
						End Site
						{
							OFFSET 0.000000 0.000000 0.000000
						}
					}
				}
				JOINT LeftShoulder
				{
					OFFSET 0.078845 0.121749 -0.034090
					CHANNELS 3 Zrotation Yrotation Xrotation
					JOINT LeftArm
					{
						OFFSET 0.090977 0.030469 -0.008868
						CHANNELS 3 Zrotation Yrotation Xrotation
						JOINT LeftForeArm
						{
							OFFSET 0.259612 -0.012772 -0.027456
							CHANNELS 3 Zrotation Yrotation Xrotation
							JOINT LeftHand
							{
								OFFSET 0.249234 0.008986 -0.001171
								CHANNELS 3 Zrotation Yrotation Xrotation
								End Site
								{
									OFFSET 0.000000 0.000000 0.000000
								}
							}
						}
					}
				}
				JOINT RightShoulder
				{
					OFFSET -0.081759 0.118833 -0.038615
					CHANNELS 3 Zrotation Yrotation Xrotation
					JOINT RightArm
					{
						OFFSET -0.096012 0.032551 -0.009143
						CHANNELS 3 Zrotation Yrotation Xrotation
						JOINT RightForeArm
						{
							OFFSET -0.253742 -0.013329 -0.021401
							CHANNELS 3 Zrotation Yrotation Xrotation
							JOINT RightHand
							{
								OFFSET -0.255298 0.007772 -0.005559
								CHANNELS 3 Zrotation Yrotation Xrotation
								End Site
								{
									OFFSET 0.000000 0.000000 0.000000
								}
							}
						}
					}
				}
			}
		}
	}
}
MOTION
Frames: 11
Frame Time: 0.050000
0.000000 0.903114 0.000000 1.523460 -14.280371 -0.606325 -2.292488 -2.178090 -30.368386 -5.537120 1.401646 13.892863 15.719339 23.530890 36.966626 0.000000 0.000000 0.000000 -2.119196 -0.618839 21.318251 2.034185 1.808851 29.663723 1.773695 -6.859590 21.326279 0.000000 0.000000 0.000000 -8.092797 0.982816 15.833452 7.176266 -1.172481 -26.148658 1.445317 15.155889 23.263945 4.668749 -0.297538 -22.746135 0.000000 0.000000 0.000000 -25.809507 2.931369 -5.621491 -39.824155 17.381937 -10.950918 -30.283979 -22.225713 6.701353 0.000000 0.000000 0.000000 23.312848 5.089591 3.543441 45.974651 3.098762 -5.886138 37.412899 49.805129 21.450461 0.000000 0.000000 0.000000 
-0.012543 0.894114 0.110201 1.060399 -8.110853 -1.636322 -6.314249 -3.245560 -24.915249 -4.935965 1.386736 22.235225 18.630098 30.011235 21.808906 0.000000 0.000000 0.000000 0.180593 -0.911295 10.719351 5.912278 1.050747 50.905357 -3.427939 -12.831803 16.755007 0.000000 0.000000 0.000000 -8.758431 0.914256 16.593428 10.159647 -1.739541 -26.121041 -1.858834 11.179102 23.593537 4.256470 0.078619 -24.466124 0.000000 0.000000 0.000000 -28.824919 2.008003 -5.614274 -38.722644 9.453751 -8.361361 -28.926886 -24.525364 7.157316 0.000000 0.000000 0.000000 22.861303 3.979256 2.818847 49.550464 -1.973857 -8.163934 34.884318 43.868733 17.372312 0.000000 0.000000 0.000000 
-0.024257 0.890165 0.219081 1.544870 -3.881107 -5.134787 -8.091918 -2.313553 -14.328939 -6.602800 2.036582 29.917384 12.850663 26.403796 -2.608608 0.000000 0.000000 0.000000 -1.941340 0.247538 -2.542591 10.199234 -3.132650 69.974444 -5.617988 -15.849086 14.810774 0.000000 0.000000 0.000000 -8.336968 0.864958 21.495132 7.367586 -0.865123 -29.002781 -1.596275 7.590218 28.118767 1.379995 2.030305 -31.435237 0.000000 0.000000 0.000000 -31.697678 -1.890970 -2.794878 -37.144807 -3.125804 -5.040546 -26.601700 -33.465713 9.409154 0.000000 0.000000 0.000000 26.237743 4.109879 2.874992 48.363607 -2.558380 -8.775035 18.497571 31.897534 6.904222 0.000000 0.000000 0.000000 
-0.034570 0.894287 0.329608 0.145652 1.318548 -6.675560 -7.898535 -0.351049 -2.108873 -2.315349 -0.230203 25.767969 10.328264 20.800974 -7.910328 0.000000 0.000000 0.000000 -1.974715 1.302538 -15.817556 11.248231 -7.164625 71.565691 -9.551001 -22.599519 7.626077 0.000000 0.000000 0.000000 -6.078916 0.165632 23.851612 9.038324 -1.494864 -26.090710 -4.880560 3.460607 23.538027 0.749177 1.944064 -26.734377 0.000000 0.000000 0.000000 -31.806719 -2.123440 -2.588869 -36.042706 -10.609173 -2.616110 -39.496427 -45.101147 18.775134 0.000000 0.000000 0.000000 25.395502 2.390801 1.303076 45.928549 -10.622339 -10.587484 18.810760 21.954855 4.353968 0.000000 0.000000 0.000000 
-0.044423 0.912751 0.448834 -2.321797 5.460650 -5.827405 -3.721471 1.129192 9.806305 0.770164 -1.214859 20.025528 6.355959 10.757201 -7.497495 0.000000 0.000000 0.000000 -1.486654 1.884647 -24.684282 9.930522 -6.038543 54.395505 -7.356421 -17.802123 -8.435861 0.000000 0.000000 0.000000 -2.676164 -0.583411 19.991259 9.263052 -1.409652 -26.376351 -6.260641 -1.536060 25.750622 -2.137617 3.162345 -26.084289 0.000000 0.000000 0.000000 -30.927541 -2.484817 -1.121780 -35.265969 -16.108083 -1.632375 -57.529235 -59.397087 38.217874 0.000000 0.000000 0.000000 22.505555 -0.135341 -0.761295 44.648288 -17.801625 -12.606389 19.169670 16.957512 3.213704 0.000000 0.000000 0.000000 
-0.054957 0.937170 0.575921 -4.532397 7.882908 -5.908141 0.410402 1.166667 18.988434 2.175868 -1.241164 14.765814 3.382744 9.481048 7.593997 0.000000 0.000000 0.000000 -0.082042 2.030807 -24.271076 5.228413 -1.727044 28.966288 -5.016490 -13.045748 7.030744 0.000000 0.000000 0.000000 -0.001744 -0.865198 16.264546 10.341477 -1.133510 -31.518137 -8.865047 -5.853303 31.052846 -3.120314 3.205968 -25.643769 0.000000 0.000000 0.000000 -29.933151 0.115046 -1.326610 -36.663378 -16.225395 -2.536029 -79.797797 -64.680645 61.785931 0.000000 0.000000 0.000000 18.547193 1.578978 -0.066139 45.863563 -21.017618 -14.456165 19.456282 13.099615 2.351532 0.000000 0.000000 0.000000 
-0.064344 0.956722 0.703427 -4.060683 10.025779 -5.357094 2.257997 0.627508 15.966254 1.505305 -2.384388 27.203347 1.538321 10.186389 19.670231 0.000000 0.000000 0.000000 1.633430 1.996051 -20.310867 0.207270 0.210178 16.805875 -5.901253 -14.869795 22.642791 0.000000 0.000000 0.000000 -1.009145 -0.443023 10.840910 8.955183 -1.060622 -28.320200 -6.652027 -6.583274 28.796773 -2.097745 2.512365 -19.347275 0.000000 0.000000 0.000000 -29.229114 1.209545 -2.504983 -38.955353 -15.898390 -2.287112 -88.505243 -61.036552 65.752013 0.000000 0.000000 0.000000 17.523653 1.452253 0.033339 47.193250 -25.341328 -16.162473 18.625329 13.119583 2.272504 0.000000 0.000000 0.000000 
-0.071535 0.964991 0.822476 -4.508927 11.553626 -6.629102 4.973376 0.037133 6.838873 -3.288651 -2.520196 43.173539 5.648990 15.791690 21.898317 0.000000 0.000000 0.000000 4.272710 1.590099 -12.167039 -0.118113 0.218189 16.556734 -7.807267 -17.568808 21.810954 0.000000 0.000000 0.000000 -2.043127 -0.295792 9.052305 10.876415 -1.738309 -25.993935 -5.741029 -2.764840 27.819666 -0.000508 1.936345 -19.831872 0.000000 0.000000 0.000000 -28.195528 1.795481 -4.738927 -41.372178 -9.415430 -3.607007 -78.958314 -51.646603 46.606940 0.000000 0.000000 0.000000 19.927395 -0.205048 0.179808 46.143134 -21.723814 -14.467328 17.768966 15.784091 2.819333 0.000000 0.000000 0.000000 
-0.075355 0.969503 0.932779 -3.513053 8.870777 -8.452087 4.295114 -0.241853 -3.347593 -8.526369 0.271554 50.641210 8.839695 19.053897 14.769251 0.000000 0.000000 0.000000 5.080398 0.429897 -2.749657 -1.307902 0.648477 15.583494 -5.475311 -14.428198 18.483781 0.000000 0.000000 0.000000 -3.343377 -0.264250 10.644901 9.486880 -1.356629 -27.331641 -2.063867 1.528437 29.377624 1.235073 1.540872 -19.358471 0.000000 0.000000 0.000000 -28.924696 1.830436 -5.761348 -41.868097 -0.969419 -6.228186 -54.770139 -41.417365 23.741549 0.000000 0.000000 0.000000 21.836406 0.889958 1.542158 46.158102 -12.234541 -11.697787 15.349280 19.287320 3.240824 0.000000 0.000000 0.000000 
-0.077028 0.968908 1.038281 -2.532511 4.170614 -8.449758 3.959647 -0.822682 -13.247948 -10.276045 2.624958 43.606355 10.438547 21.130400 11.324292 0.000000 0.000000 0.000000 4.211263 -0.863429 5.975415 -0.933619 0.646721 13.291634 -2.958909 -10.065052 11.789060 0.000000 0.000000 0.000000 -3.452964 -0.232577 11.553478 8.142890 -1.196369 -26.416986 1.137690 6.710409 28.144996 0.560760 2.563181 -20.775235 0.000000 0.000000 0.000000 -27.839111 3.955843 -7.719481 -42.372298 9.097287 -9.212467 -39.231186 -27.082901 10.400086 0.000000 0.000000 0.000000 20.831345 2.496978 2.881676 49.345439 -3.046729 -9.037834 14.741263 26.864135 4.881134 0.000000 0.000000 0.000000 
-0.076647 0.959273 1.139208 -1.947595 -0.060847 -8.829601 2.930155 -1.112953 -16.899416 -7.469136 1.436107 19.323405 11.827146 22.933096 12.666431 0.000000 0.000000 0.000000 3.373589 -1.923459 14.550106 -0.536885 0.510982 10.073204 -2.420154 -8.921598 9.112600 0.000000 0.000000 0.000000 -4.173940 -0.139913 13.990169 7.976509 -1.269787 -26.176306 2.511704 10.232979 26.886062 0.231235 3.100304 -22.902216 0.000000 0.000000 0.000000 -27.175697 5.550764 -8.791456 -39.789194 18.244227 -11.246124 -30.721137 -18.257261 5.351561 0.000000 0.000000 0.000000 20.815282 4.132440 3.918942 47.932925 4.588465 -6.011408 16.357966 35.263181 7.449221 0.000000 0.000000 0.000000 
